<mxfile host="app.diagrams.net" modified="2022-04-26T03:30:54.489Z" agent="5.0 (Windows NT 10.0; Win64; x64) AppleWebKit/537.36 (KHTML, like Gecko) Chrome/100.0.4896.127 Safari/537.36" etag="jPd-Az8ynH44VU7a1Lej" version="17.4.6" type="github">
  <diagram id="9OpbHMZkyGLYF3hpoqWr" name="Page-1">
    <mxGraphModel dx="1635" dy="1644" grid="0" gridSize="10" guides="1" tooltips="1" connect="1" arrows="1" fold="1" page="1" pageScale="1" pageWidth="1100" pageHeight="850" math="0" shadow="0">
      <root>
        <mxCell id="0" />
        <mxCell id="1" parent="0" />
        <mxCell id="sUHgYp035g94h7qN6RoD-1" value="Customers" style="whiteSpace=wrap;html=1;align=center;" parent="1" vertex="1">
          <mxGeometry x="850" y="90" width="100" height="40" as="geometry" />
        </mxCell>
        <mxCell id="sUHgYp035g94h7qN6RoD-2" value="BroncoID" style="ellipse;whiteSpace=wrap;html=1;align=center;fontStyle=4;" parent="1" vertex="1">
          <mxGeometry x="1020" y="-60" width="100" height="40" as="geometry" />
        </mxCell>
        <mxCell id="sUHgYp035g94h7qN6RoD-3" value="Professor" style="whiteSpace=wrap;html=1;align=center;" parent="1" vertex="1">
          <mxGeometry x="540" y="170" width="100" height="40" as="geometry" />
        </mxCell>
        <mxCell id="sUHgYp035g94h7qN6RoD-4" value="Student" style="whiteSpace=wrap;html=1;align=center;" parent="1" vertex="1">
          <mxGeometry x="540" y="50" width="100" height="40" as="geometry" />
        </mxCell>
        <mxCell id="sUHgYp035g94h7qN6RoD-6" value="Product" style="whiteSpace=wrap;html=1;align=center;" parent="1" vertex="1">
          <mxGeometry x="730" y="540" width="100" height="40" as="geometry" />
        </mxCell>
        <mxCell id="sUHgYp035g94h7qN6RoD-8" value="Orders" style="whiteSpace=wrap;html=1;align=center;" parent="1" vertex="1">
          <mxGeometry x="820" y="300" width="100" height="40" as="geometry" />
        </mxCell>
        <mxCell id="sUHgYp035g94h7qN6RoD-19" value="" style="endArrow=none;html=1;rounded=0;entryX=0;entryY=0.5;entryDx=0;entryDy=0;exitX=1;exitY=0.5;exitDx=0;exitDy=0;startArrow=none;" parent="1" source="sUHgYp035g94h7qN6RoD-22" target="sUHgYp035g94h7qN6RoD-4" edge="1">
          <mxGeometry relative="1" as="geometry">
            <mxPoint x="350" y="290" as="sourcePoint" />
            <mxPoint x="510" y="290" as="targetPoint" />
            <Array as="points" />
          </mxGeometry>
        </mxCell>
        <mxCell id="sUHgYp035g94h7qN6RoD-21" value="N" style="resizable=0;html=1;align=right;verticalAlign=bottom;" parent="sUHgYp035g94h7qN6RoD-19" connectable="0" vertex="1">
          <mxGeometry x="1" relative="1" as="geometry" />
        </mxCell>
        <mxCell id="sUHgYp035g94h7qN6RoD-22" value="gets" style="shape=rhombus;perimeter=rhombusPerimeter;whiteSpace=wrap;html=1;align=center;" parent="1" vertex="1">
          <mxGeometry x="370" y="50" width="80" height="40" as="geometry" />
        </mxCell>
        <mxCell id="sUHgYp035g94h7qN6RoD-23" value="" style="endArrow=none;html=1;rounded=0;entryX=0;entryY=0.5;entryDx=0;entryDy=0;exitX=1;exitY=0.5;exitDx=0;exitDy=0;" parent="1" source="EufJS-9l2FlXT6CtHByc-48" target="sUHgYp035g94h7qN6RoD-22" edge="1">
          <mxGeometry relative="1" as="geometry">
            <mxPoint x="239.99999999999977" y="100" as="sourcePoint" />
            <mxPoint x="540" y="70" as="targetPoint" />
            <Array as="points" />
          </mxGeometry>
        </mxCell>
        <mxCell id="sUHgYp035g94h7qN6RoD-24" value="M" style="resizable=0;html=1;align=left;verticalAlign=bottom;" parent="sUHgYp035g94h7qN6RoD-23" connectable="0" vertex="1">
          <mxGeometry x="-1" relative="1" as="geometry" />
        </mxCell>
        <mxCell id="sUHgYp035g94h7qN6RoD-26" value="" style="endArrow=none;html=1;rounded=0;entryX=0;entryY=0.5;entryDx=0;entryDy=0;exitX=1;exitY=0.5;exitDx=0;exitDy=0;startArrow=none;" parent="1" source="sUHgYp035g94h7qN6RoD-28" target="sUHgYp035g94h7qN6RoD-3" edge="1">
          <mxGeometry relative="1" as="geometry">
            <mxPoint x="330" y="390" as="sourcePoint" />
            <mxPoint x="520" y="170" as="targetPoint" />
            <Array as="points" />
          </mxGeometry>
        </mxCell>
        <mxCell id="sUHgYp035g94h7qN6RoD-27" value="N" style="resizable=0;html=1;align=right;verticalAlign=bottom;" parent="sUHgYp035g94h7qN6RoD-26" connectable="0" vertex="1">
          <mxGeometry x="1" relative="1" as="geometry" />
        </mxCell>
        <mxCell id="sUHgYp035g94h7qN6RoD-28" value="gets" style="shape=rhombus;perimeter=rhombusPerimeter;whiteSpace=wrap;html=1;align=center;" parent="1" vertex="1">
          <mxGeometry x="320" y="160" width="80" height="40" as="geometry" />
        </mxCell>
        <mxCell id="sUHgYp035g94h7qN6RoD-29" value="" style="endArrow=none;html=1;rounded=0;entryX=0;entryY=0.5;entryDx=0;entryDy=0;exitX=1;exitY=0.5;exitDx=0;exitDy=0;" parent="1" source="EufJS-9l2FlXT6CtHByc-48" target="sUHgYp035g94h7qN6RoD-28" edge="1">
          <mxGeometry relative="1" as="geometry">
            <mxPoint x="239.99999999999977" y="100" as="sourcePoint" />
            <mxPoint x="520" y="170" as="targetPoint" />
            <Array as="points" />
          </mxGeometry>
        </mxCell>
        <mxCell id="sUHgYp035g94h7qN6RoD-30" value="M" style="resizable=0;html=1;align=left;verticalAlign=bottom;" parent="sUHgYp035g94h7qN6RoD-29" connectable="0" vertex="1">
          <mxGeometry x="-1" relative="1" as="geometry">
            <mxPoint x="20" y="20" as="offset" />
          </mxGeometry>
        </mxCell>
        <mxCell id="sUHgYp035g94h7qN6RoD-32" value="" style="endArrow=none;html=1;rounded=0;entryX=0;entryY=0.5;entryDx=0;entryDy=0;exitX=1;exitY=0.5;exitDx=0;exitDy=0;startArrow=none;" parent="1" source="sUHgYp035g94h7qN6RoD-31" target="sUHgYp035g94h7qN6RoD-6" edge="1">
          <mxGeometry relative="1" as="geometry">
            <mxPoint x="350" y="290" as="sourcePoint" />
            <mxPoint x="510" y="290" as="targetPoint" />
          </mxGeometry>
        </mxCell>
        <mxCell id="sUHgYp035g94h7qN6RoD-34" value="N" style="resizable=0;html=1;align=right;verticalAlign=bottom;" parent="sUHgYp035g94h7qN6RoD-32" connectable="0" vertex="1">
          <mxGeometry x="1" relative="1" as="geometry" />
        </mxCell>
        <mxCell id="sUHgYp035g94h7qN6RoD-31" value="has&amp;nbsp;" style="shape=rhombus;perimeter=rhombusPerimeter;whiteSpace=wrap;html=1;align=center;" parent="1" vertex="1">
          <mxGeometry x="460" y="450" width="120" height="60" as="geometry" />
        </mxCell>
        <mxCell id="sUHgYp035g94h7qN6RoD-35" value="" style="endArrow=none;html=1;rounded=0;entryX=0;entryY=0.5;entryDx=0;entryDy=0;exitX=1;exitY=0.5;exitDx=0;exitDy=0;" parent="1" source="EufJS-9l2FlXT6CtHByc-34" target="sUHgYp035g94h7qN6RoD-31" edge="1">
          <mxGeometry relative="1" as="geometry">
            <mxPoint x="360" y="510" as="sourcePoint" />
            <mxPoint x="860" y="440" as="targetPoint" />
          </mxGeometry>
        </mxCell>
        <mxCell id="sUHgYp035g94h7qN6RoD-36" value="M" style="resizable=0;html=1;align=left;verticalAlign=bottom;" parent="sUHgYp035g94h7qN6RoD-35" connectable="0" vertex="1">
          <mxGeometry x="-1" relative="1" as="geometry" />
        </mxCell>
        <mxCell id="sUHgYp035g94h7qN6RoD-38" value="placed" style="shape=rhombus;perimeter=rhombusPerimeter;whiteSpace=wrap;html=1;align=center;" parent="1" vertex="1">
          <mxGeometry x="850" y="200" width="80" height="40" as="geometry" />
        </mxCell>
        <mxCell id="sUHgYp035g94h7qN6RoD-39" value="" style="endArrow=none;html=1;rounded=0;entryX=0.5;entryY=1;entryDx=0;entryDy=0;exitX=0.5;exitY=0;exitDx=0;exitDy=0;" parent="1" source="sUHgYp035g94h7qN6RoD-38" target="sUHgYp035g94h7qN6RoD-1" edge="1">
          <mxGeometry relative="1" as="geometry">
            <mxPoint x="790" y="90" as="sourcePoint" />
            <mxPoint x="860" y="120" as="targetPoint" />
          </mxGeometry>
        </mxCell>
        <mxCell id="sUHgYp035g94h7qN6RoD-40" value="1" style="resizable=0;html=1;align=right;verticalAlign=bottom;" parent="sUHgYp035g94h7qN6RoD-39" connectable="0" vertex="1">
          <mxGeometry x="1" relative="1" as="geometry">
            <mxPoint x="-15" y="20" as="offset" />
          </mxGeometry>
        </mxCell>
        <mxCell id="sUHgYp035g94h7qN6RoD-41" value="" style="endArrow=none;html=1;rounded=0;entryX=0.5;entryY=0;entryDx=0;entryDy=0;exitX=0.5;exitY=1;exitDx=0;exitDy=0;startArrow=none;" parent="1" source="sUHgYp035g94h7qN6RoD-38" target="sUHgYp035g94h7qN6RoD-8" edge="1">
          <mxGeometry relative="1" as="geometry">
            <mxPoint x="460" y="80" as="sourcePoint" />
            <mxPoint x="550" y="80" as="targetPoint" />
            <Array as="points" />
          </mxGeometry>
        </mxCell>
        <mxCell id="sUHgYp035g94h7qN6RoD-42" value="N" style="resizable=0;html=1;align=right;verticalAlign=bottom;" parent="sUHgYp035g94h7qN6RoD-41" connectable="0" vertex="1">
          <mxGeometry x="1" relative="1" as="geometry" />
        </mxCell>
        <mxCell id="sUHgYp035g94h7qN6RoD-47" value="" style="endArrow=none;html=1;rounded=0;entryX=0.5;entryY=1;entryDx=0;entryDy=0;exitX=0.5;exitY=0;exitDx=0;exitDy=0;startArrow=none;" parent="1" source="sUHgYp035g94h7qN6RoD-49" target="sUHgYp035g94h7qN6RoD-8" edge="1">
          <mxGeometry relative="1" as="geometry">
            <mxPoint x="450" y="550" as="sourcePoint" />
            <mxPoint x="980" y="490" as="targetPoint" />
            <Array as="points" />
          </mxGeometry>
        </mxCell>
        <mxCell id="sUHgYp035g94h7qN6RoD-48" value="N" style="resizable=0;html=1;align=right;verticalAlign=bottom;" parent="sUHgYp035g94h7qN6RoD-47" connectable="0" vertex="1">
          <mxGeometry x="1" relative="1" as="geometry" />
        </mxCell>
        <mxCell id="sUHgYp035g94h7qN6RoD-49" value="has" style="shape=rhombus;perimeter=rhombusPerimeter;whiteSpace=wrap;html=1;align=center;" parent="1" vertex="1">
          <mxGeometry x="790" y="440" width="80" height="40" as="geometry" />
        </mxCell>
        <mxCell id="sUHgYp035g94h7qN6RoD-50" value="" style="endArrow=none;html=1;rounded=0;exitX=0.5;exitY=0;exitDx=0;exitDy=0;entryX=0.5;entryY=1;entryDx=0;entryDy=0;" parent="1" source="sUHgYp035g94h7qN6RoD-6" target="sUHgYp035g94h7qN6RoD-49" edge="1">
          <mxGeometry relative="1" as="geometry">
            <mxPoint x="810" y="445" as="sourcePoint" />
            <mxPoint x="860" y="420" as="targetPoint" />
            <Array as="points" />
          </mxGeometry>
        </mxCell>
        <mxCell id="sUHgYp035g94h7qN6RoD-51" value="M" style="resizable=0;html=1;align=left;verticalAlign=bottom;" parent="sUHgYp035g94h7qN6RoD-50" connectable="0" vertex="1">
          <mxGeometry x="-1" relative="1" as="geometry">
            <mxPoint x="-10" y="-10" as="offset" />
          </mxGeometry>
        </mxCell>
        <mxCell id="sUHgYp035g94h7qN6RoD-53" value="" style="endArrow=none;html=1;rounded=0;entryX=0;entryY=0.5;entryDx=0;entryDy=0;exitX=0.5;exitY=0;exitDx=0;exitDy=0;" parent="1" source="sUHgYp035g94h7qN6RoD-1" target="sUHgYp035g94h7qN6RoD-2" edge="1">
          <mxGeometry relative="1" as="geometry">
            <mxPoint x="350" y="220" as="sourcePoint" />
            <mxPoint x="510" y="220" as="targetPoint" />
          </mxGeometry>
        </mxCell>
        <mxCell id="EufJS-9l2FlXT6CtHByc-1" value="o" style="ellipse;whiteSpace=wrap;html=1;aspect=fixed;" parent="1" vertex="1">
          <mxGeometry x="730" y="110" width="30" height="30" as="geometry" />
        </mxCell>
        <mxCell id="EufJS-9l2FlXT6CtHByc-2" value="" style="endArrow=none;html=1;rounded=0;entryX=0;entryY=0.5;entryDx=0;entryDy=0;exitX=1;exitY=0.5;exitDx=0;exitDy=0;" parent="1" source="EufJS-9l2FlXT6CtHByc-1" target="sUHgYp035g94h7qN6RoD-1" edge="1">
          <mxGeometry width="50" height="50" relative="1" as="geometry">
            <mxPoint x="720" y="260" as="sourcePoint" />
            <mxPoint x="770" y="210" as="targetPoint" />
          </mxGeometry>
        </mxCell>
        <mxCell id="EufJS-9l2FlXT6CtHByc-5" value="" style="shape=requiredInterface;html=1;verticalLabelPosition=bottom;sketch=0;rotation=-205;" parent="1" vertex="1">
          <mxGeometry x="690" y="140" width="10" height="20" as="geometry" />
        </mxCell>
        <mxCell id="EufJS-9l2FlXT6CtHByc-10" value="" style="endArrow=none;html=1;rounded=0;entryX=0;entryY=0.5;entryDx=0;entryDy=0;exitX=1;exitY=0.5;exitDx=0;exitDy=0;" parent="1" source="sUHgYp035g94h7qN6RoD-3" target="EufJS-9l2FlXT6CtHByc-1" edge="1">
          <mxGeometry width="50" height="50" relative="1" as="geometry">
            <mxPoint x="640" y="190" as="sourcePoint" />
            <mxPoint x="730" y="125" as="targetPoint" />
          </mxGeometry>
        </mxCell>
        <mxCell id="EufJS-9l2FlXT6CtHByc-6" value="" style="shape=requiredInterface;html=1;verticalLabelPosition=bottom;sketch=0;rotation=-150;" parent="1" vertex="1">
          <mxGeometry x="671" y="84" width="10" height="20" as="geometry" />
        </mxCell>
        <mxCell id="EufJS-9l2FlXT6CtHByc-11" value="" style="endArrow=none;html=1;rounded=0;exitX=1;exitY=0.5;exitDx=0;exitDy=0;entryX=0;entryY=0.5;entryDx=0;entryDy=0;" parent="1" source="sUHgYp035g94h7qN6RoD-4" target="EufJS-9l2FlXT6CtHByc-1" edge="1">
          <mxGeometry width="50" height="50" relative="1" as="geometry">
            <mxPoint x="640" y="70" as="sourcePoint" />
            <mxPoint x="670" y="80" as="targetPoint" />
          </mxGeometry>
        </mxCell>
        <mxCell id="EufJS-9l2FlXT6CtHByc-12" value="Department" style="ellipse;whiteSpace=wrap;html=1;align=center;" parent="1" vertex="1">
          <mxGeometry x="670" y="220" width="100" height="40" as="geometry" />
        </mxCell>
        <mxCell id="EufJS-9l2FlXT6CtHByc-13" value="Research" style="ellipse;whiteSpace=wrap;html=1;align=center;" parent="1" vertex="1">
          <mxGeometry x="480" y="270" width="100" height="40" as="geometry" />
        </mxCell>
        <mxCell id="EufJS-9l2FlXT6CtHByc-14" value="DOB" style="ellipse;whiteSpace=wrap;html=1;align=center;" parent="1" vertex="1">
          <mxGeometry x="980" y="190" width="100" height="40" as="geometry" />
        </mxCell>
        <mxCell id="EufJS-9l2FlXT6CtHByc-15" value="Name" style="ellipse;whiteSpace=wrap;html=1;align=center;" parent="1" vertex="1">
          <mxGeometry x="880" y="-60" width="100" height="40" as="geometry" />
        </mxCell>
        <mxCell id="EufJS-9l2FlXT6CtHByc-16" value="address" style="ellipse;whiteSpace=wrap;html=1;align=center;" parent="1" vertex="1">
          <mxGeometry x="1000" y="90" width="100" height="40" as="geometry" />
        </mxCell>
        <mxCell id="EufJS-9l2FlXT6CtHByc-17" value="Zip Code" style="ellipse;whiteSpace=wrap;html=1;align=center;" parent="1" vertex="1">
          <mxGeometry x="1090" y="230" width="100" height="40" as="geometry" />
        </mxCell>
        <mxCell id="EufJS-9l2FlXT6CtHByc-18" value="State" style="ellipse;whiteSpace=wrap;html=1;align=center;" parent="1" vertex="1">
          <mxGeometry x="1190" y="200" width="100" height="40" as="geometry" />
        </mxCell>
        <mxCell id="EufJS-9l2FlXT6CtHByc-19" value="City" style="ellipse;whiteSpace=wrap;html=1;align=center;" parent="1" vertex="1">
          <mxGeometry x="1250" y="120" width="100" height="40" as="geometry" />
        </mxCell>
        <mxCell id="EufJS-9l2FlXT6CtHByc-20" value="Number" style="ellipse;whiteSpace=wrap;html=1;align=center;" parent="1" vertex="1">
          <mxGeometry x="1240" y="60" width="100" height="40" as="geometry" />
        </mxCell>
        <mxCell id="EufJS-9l2FlXT6CtHByc-21" value="Street" style="ellipse;whiteSpace=wrap;html=1;align=center;" parent="1" vertex="1">
          <mxGeometry x="1120" y="10" width="100" height="40" as="geometry" />
        </mxCell>
        <mxCell id="EufJS-9l2FlXT6CtHByc-24" value="" style="endArrow=none;html=1;rounded=0;entryX=0.5;entryY=0;entryDx=0;entryDy=0;exitX=0;exitY=0.5;exitDx=0;exitDy=0;" parent="1" source="EufJS-9l2FlXT6CtHByc-21" target="EufJS-9l2FlXT6CtHByc-16" edge="1">
          <mxGeometry relative="1" as="geometry">
            <mxPoint x="820" y="310" as="sourcePoint" />
            <mxPoint x="980" y="310" as="targetPoint" />
          </mxGeometry>
        </mxCell>
        <mxCell id="EufJS-9l2FlXT6CtHByc-25" value="" style="endArrow=none;html=1;rounded=0;entryX=0;entryY=0.5;entryDx=0;entryDy=0;exitX=1;exitY=0;exitDx=0;exitDy=0;" parent="1" source="EufJS-9l2FlXT6CtHByc-16" target="EufJS-9l2FlXT6CtHByc-20" edge="1">
          <mxGeometry relative="1" as="geometry">
            <mxPoint x="820" y="310" as="sourcePoint" />
            <mxPoint x="980" y="310" as="targetPoint" />
          </mxGeometry>
        </mxCell>
        <mxCell id="EufJS-9l2FlXT6CtHByc-26" value="" style="endArrow=none;html=1;rounded=0;entryX=1;entryY=0.5;entryDx=0;entryDy=0;exitX=0;exitY=0.5;exitDx=0;exitDy=0;" parent="1" source="EufJS-9l2FlXT6CtHByc-19" target="EufJS-9l2FlXT6CtHByc-16" edge="1">
          <mxGeometry relative="1" as="geometry">
            <mxPoint x="820" y="310" as="sourcePoint" />
            <mxPoint x="980" y="310" as="targetPoint" />
          </mxGeometry>
        </mxCell>
        <mxCell id="EufJS-9l2FlXT6CtHByc-27" value="" style="endArrow=none;html=1;rounded=0;entryX=1;entryY=1;entryDx=0;entryDy=0;exitX=0.5;exitY=0;exitDx=0;exitDy=0;" parent="1" source="EufJS-9l2FlXT6CtHByc-18" target="EufJS-9l2FlXT6CtHByc-16" edge="1">
          <mxGeometry relative="1" as="geometry">
            <mxPoint x="820" y="310" as="sourcePoint" />
            <mxPoint x="980" y="310" as="targetPoint" />
          </mxGeometry>
        </mxCell>
        <mxCell id="EufJS-9l2FlXT6CtHByc-28" value="" style="endArrow=none;html=1;rounded=0;entryX=0.5;entryY=1;entryDx=0;entryDy=0;exitX=0.5;exitY=0;exitDx=0;exitDy=0;" parent="1" source="EufJS-9l2FlXT6CtHByc-17" target="EufJS-9l2FlXT6CtHByc-16" edge="1">
          <mxGeometry relative="1" as="geometry">
            <mxPoint x="820" y="310" as="sourcePoint" />
            <mxPoint x="980" y="310" as="targetPoint" />
          </mxGeometry>
        </mxCell>
        <mxCell id="EufJS-9l2FlXT6CtHByc-29" value="" style="endArrow=none;html=1;rounded=0;entryX=0;entryY=0.5;entryDx=0;entryDy=0;exitX=1;exitY=0.5;exitDx=0;exitDy=0;" parent="1" source="sUHgYp035g94h7qN6RoD-1" target="EufJS-9l2FlXT6CtHByc-16" edge="1">
          <mxGeometry relative="1" as="geometry">
            <mxPoint x="820" y="310" as="sourcePoint" />
            <mxPoint x="980" y="310" as="targetPoint" />
          </mxGeometry>
        </mxCell>
        <mxCell id="EufJS-9l2FlXT6CtHByc-30" value="" style="endArrow=none;html=1;rounded=0;entryX=0.5;entryY=0;entryDx=0;entryDy=0;exitX=0.75;exitY=1;exitDx=0;exitDy=0;" parent="1" source="sUHgYp035g94h7qN6RoD-1" target="EufJS-9l2FlXT6CtHByc-14" edge="1">
          <mxGeometry relative="1" as="geometry">
            <mxPoint x="820" y="310" as="sourcePoint" />
            <mxPoint x="980" y="310" as="targetPoint" />
          </mxGeometry>
        </mxCell>
        <mxCell id="EufJS-9l2FlXT6CtHByc-31" value="" style="endArrow=none;html=1;rounded=0;entryX=0.5;entryY=0;entryDx=0;entryDy=0;exitX=0.5;exitY=1;exitDx=0;exitDy=0;" parent="1" source="EufJS-9l2FlXT6CtHByc-15" target="sUHgYp035g94h7qN6RoD-1" edge="1">
          <mxGeometry relative="1" as="geometry">
            <mxPoint x="820" y="310" as="sourcePoint" />
            <mxPoint x="980" y="310" as="targetPoint" />
          </mxGeometry>
        </mxCell>
        <mxCell id="EufJS-9l2FlXT6CtHByc-32" value="Phone" style="ellipse;whiteSpace=wrap;html=1;align=center;" parent="1" vertex="1">
          <mxGeometry x="760" y="-40" width="100" height="40" as="geometry" />
        </mxCell>
        <mxCell id="EufJS-9l2FlXT6CtHByc-33" value="" style="endArrow=none;html=1;rounded=0;entryX=0.25;entryY=0;entryDx=0;entryDy=0;exitX=0.5;exitY=1;exitDx=0;exitDy=0;" parent="1" source="EufJS-9l2FlXT6CtHByc-32" target="sUHgYp035g94h7qN6RoD-1" edge="1">
          <mxGeometry relative="1" as="geometry">
            <mxPoint x="820" y="310" as="sourcePoint" />
            <mxPoint x="980" y="310" as="targetPoint" />
          </mxGeometry>
        </mxCell>
        <mxCell id="EufJS-9l2FlXT6CtHByc-34" value="Historical Price" style="shape=ext;margin=3;double=1;whiteSpace=wrap;html=1;align=center;" parent="1" vertex="1">
          <mxGeometry x="170" y="460" width="100" height="40" as="geometry" />
        </mxCell>
        <mxCell id="EufJS-9l2FlXT6CtHByc-36" value="Office" style="ellipse;whiteSpace=wrap;html=1;align=center;" parent="1" vertex="1">
          <mxGeometry x="590" y="280" width="100" height="40" as="geometry" />
        </mxCell>
        <mxCell id="EufJS-9l2FlXT6CtHByc-37" value="" style="endArrow=none;html=1;rounded=0;entryX=1;entryY=0.75;entryDx=0;entryDy=0;exitX=0;exitY=0;exitDx=0;exitDy=0;" parent="1" source="EufJS-9l2FlXT6CtHByc-12" target="sUHgYp035g94h7qN6RoD-3" edge="1">
          <mxGeometry relative="1" as="geometry">
            <mxPoint x="1150" y="220" as="sourcePoint" />
            <mxPoint x="1310" y="220" as="targetPoint" />
          </mxGeometry>
        </mxCell>
        <mxCell id="EufJS-9l2FlXT6CtHByc-38" value="" style="endArrow=none;html=1;rounded=0;exitX=0.5;exitY=1;exitDx=0;exitDy=0;entryX=0.5;entryY=0;entryDx=0;entryDy=0;" parent="1" source="sUHgYp035g94h7qN6RoD-3" target="EufJS-9l2FlXT6CtHByc-36" edge="1">
          <mxGeometry relative="1" as="geometry">
            <mxPoint x="1150" y="220" as="sourcePoint" />
            <mxPoint x="1310" y="220" as="targetPoint" />
          </mxGeometry>
        </mxCell>
        <mxCell id="EufJS-9l2FlXT6CtHByc-39" value="" style="endArrow=none;html=1;rounded=0;exitX=0.25;exitY=1;exitDx=0;exitDy=0;entryX=0.5;entryY=0;entryDx=0;entryDy=0;" parent="1" source="sUHgYp035g94h7qN6RoD-3" target="EufJS-9l2FlXT6CtHByc-13" edge="1">
          <mxGeometry relative="1" as="geometry">
            <mxPoint x="1150" y="220" as="sourcePoint" />
            <mxPoint x="1310" y="220" as="targetPoint" />
          </mxGeometry>
        </mxCell>
        <mxCell id="EufJS-9l2FlXT6CtHByc-40" value="Minor" style="ellipse;whiteSpace=wrap;html=1;align=center;" parent="1" vertex="1">
          <mxGeometry x="645" y="-40" width="100" height="40" as="geometry" />
        </mxCell>
        <mxCell id="EufJS-9l2FlXT6CtHByc-41" value="Enter Date" style="ellipse;whiteSpace=wrap;html=1;align=center;" parent="1" vertex="1">
          <mxGeometry x="440" y="-40" width="100" height="40" as="geometry" />
        </mxCell>
        <mxCell id="EufJS-9l2FlXT6CtHByc-42" value="Major" style="ellipse;whiteSpace=wrap;html=1;align=center;" parent="1" vertex="1">
          <mxGeometry x="626" y="-110" width="100" height="40" as="geometry" />
        </mxCell>
        <mxCell id="EufJS-9l2FlXT6CtHByc-43" value="Grad Date" style="ellipse;whiteSpace=wrap;html=1;align=center;" parent="1" vertex="1">
          <mxGeometry x="500" y="-100" width="100" height="40" as="geometry" />
        </mxCell>
        <mxCell id="EufJS-9l2FlXT6CtHByc-44" value="" style="endArrow=none;html=1;rounded=0;entryX=0;entryY=1;entryDx=0;entryDy=0;exitX=0.75;exitY=0;exitDx=0;exitDy=0;" parent="1" source="sUHgYp035g94h7qN6RoD-4" target="EufJS-9l2FlXT6CtHByc-40" edge="1">
          <mxGeometry relative="1" as="geometry">
            <mxPoint x="1150" y="220" as="sourcePoint" />
            <mxPoint x="1310" y="220" as="targetPoint" />
          </mxGeometry>
        </mxCell>
        <mxCell id="EufJS-9l2FlXT6CtHByc-45" value="" style="endArrow=none;html=1;rounded=0;entryX=0;entryY=1;entryDx=0;entryDy=0;exitX=0.75;exitY=0;exitDx=0;exitDy=0;" parent="1" source="sUHgYp035g94h7qN6RoD-4" target="EufJS-9l2FlXT6CtHByc-42" edge="1">
          <mxGeometry relative="1" as="geometry">
            <mxPoint x="1150" y="220" as="sourcePoint" />
            <mxPoint x="1310" y="220" as="targetPoint" />
          </mxGeometry>
        </mxCell>
        <mxCell id="EufJS-9l2FlXT6CtHByc-46" value="" style="endArrow=none;html=1;rounded=0;exitX=0.5;exitY=0;exitDx=0;exitDy=0;entryX=0.5;entryY=1;entryDx=0;entryDy=0;" parent="1" source="sUHgYp035g94h7qN6RoD-4" target="EufJS-9l2FlXT6CtHByc-43" edge="1">
          <mxGeometry relative="1" as="geometry">
            <mxPoint x="580" y="18.460000000000008" as="sourcePoint" />
            <mxPoint x="740" y="18.460000000000008" as="targetPoint" />
          </mxGeometry>
        </mxCell>
        <mxCell id="EufJS-9l2FlXT6CtHByc-47" value="" style="endArrow=none;html=1;rounded=0;entryX=0.5;entryY=0;entryDx=0;entryDy=0;exitX=0.5;exitY=1;exitDx=0;exitDy=0;" parent="1" source="EufJS-9l2FlXT6CtHByc-41" target="sUHgYp035g94h7qN6RoD-4" edge="1">
          <mxGeometry relative="1" as="geometry">
            <mxPoint x="570" y="10" as="sourcePoint" />
            <mxPoint x="730" y="10" as="targetPoint" />
          </mxGeometry>
        </mxCell>
        <mxCell id="EufJS-9l2FlXT6CtHByc-48" value="Discount Scheme" style="whiteSpace=wrap;html=1;align=center;" parent="1" vertex="1">
          <mxGeometry x="120" y="84" width="100" height="40" as="geometry" />
        </mxCell>
        <mxCell id="EufJS-9l2FlXT6CtHByc-49" value="discountID" style="ellipse;whiteSpace=wrap;html=1;align=center;fontStyle=4;" parent="1" vertex="1">
          <mxGeometry x="80" y="150" width="100" height="40" as="geometry" />
        </mxCell>
        <mxCell id="EufJS-9l2FlXT6CtHByc-50" value="" style="endArrow=none;html=1;rounded=0;exitX=0.5;exitY=1;exitDx=0;exitDy=0;entryX=0.5;entryY=0;entryDx=0;entryDy=0;" parent="1" source="EufJS-9l2FlXT6CtHByc-48" target="EufJS-9l2FlXT6CtHByc-49" edge="1">
          <mxGeometry relative="1" as="geometry">
            <mxPoint x="610" y="220" as="sourcePoint" />
            <mxPoint x="770" y="220" as="targetPoint" />
          </mxGeometry>
        </mxCell>
        <mxCell id="EufJS-9l2FlXT6CtHByc-51" value="ProductID" style="ellipse;whiteSpace=wrap;html=1;align=center;fontStyle=4;" parent="1" vertex="1">
          <mxGeometry x="630" y="630" width="100" height="40" as="geometry" />
        </mxCell>
        <mxCell id="EufJS-9l2FlXT6CtHByc-52" value="Name" style="ellipse;whiteSpace=wrap;html=1;align=center;" parent="1" vertex="1">
          <mxGeometry x="820" y="620" width="100" height="40" as="geometry" />
        </mxCell>
        <mxCell id="EufJS-9l2FlXT6CtHByc-53" value="" style="endArrow=none;html=1;rounded=0;entryX=0.5;entryY=0;entryDx=0;entryDy=0;exitX=0.5;exitY=1;exitDx=0;exitDy=0;" parent="1" source="sUHgYp035g94h7qN6RoD-6" target="EufJS-9l2FlXT6CtHByc-52" edge="1">
          <mxGeometry relative="1" as="geometry">
            <mxPoint x="610" y="580" as="sourcePoint" />
            <mxPoint x="770" y="580" as="targetPoint" />
          </mxGeometry>
        </mxCell>
        <mxCell id="EufJS-9l2FlXT6CtHByc-55" value="" style="endArrow=none;html=1;rounded=0;exitX=0.5;exitY=0;exitDx=0;exitDy=0;entryX=0.25;entryY=1;entryDx=0;entryDy=0;" parent="1" source="EufJS-9l2FlXT6CtHByc-51" target="sUHgYp035g94h7qN6RoD-6" edge="1">
          <mxGeometry relative="1" as="geometry">
            <mxPoint x="610" y="580" as="sourcePoint" />
            <mxPoint x="780" y="610" as="targetPoint" />
          </mxGeometry>
        </mxCell>
        <mxCell id="EufJS-9l2FlXT6CtHByc-56" value="&lt;span style=&quot;border-bottom: 1px dotted&quot;&gt;Date&lt;/span&gt;" style="ellipse;whiteSpace=wrap;html=1;align=center;" parent="1" vertex="1">
          <mxGeometry x="60" y="540" width="100" height="40" as="geometry" />
        </mxCell>
        <mxCell id="EufJS-9l2FlXT6CtHByc-57" value="Price" style="ellipse;whiteSpace=wrap;html=1;align=center;" parent="1" vertex="1">
          <mxGeometry x="240" y="550" width="100" height="40" as="geometry" />
        </mxCell>
        <mxCell id="EufJS-9l2FlXT6CtHByc-58" value="" style="endArrow=none;html=1;rounded=0;exitX=0.5;exitY=1;exitDx=0;exitDy=0;entryX=0.5;entryY=0;entryDx=0;entryDy=0;" parent="1" source="EufJS-9l2FlXT6CtHByc-34" target="EufJS-9l2FlXT6CtHByc-57" edge="1">
          <mxGeometry relative="1" as="geometry">
            <mxPoint x="610" y="580" as="sourcePoint" />
            <mxPoint x="770" y="580" as="targetPoint" />
          </mxGeometry>
        </mxCell>
        <mxCell id="EufJS-9l2FlXT6CtHByc-59" value="" style="endArrow=none;html=1;rounded=0;exitX=0.25;exitY=1;exitDx=0;exitDy=0;entryX=0.5;entryY=0;entryDx=0;entryDy=0;" parent="1" source="EufJS-9l2FlXT6CtHByc-34" target="EufJS-9l2FlXT6CtHByc-56" edge="1">
          <mxGeometry relative="1" as="geometry">
            <mxPoint x="610" y="580" as="sourcePoint" />
            <mxPoint x="770" y="580" as="targetPoint" />
          </mxGeometry>
        </mxCell>
        <mxCell id="EufJS-9l2FlXT6CtHByc-60" value="OrderID" style="ellipse;whiteSpace=wrap;html=1;align=center;fontStyle=4;" parent="1" vertex="1">
          <mxGeometry x="645" y="340" width="100" height="40" as="geometry" />
        </mxCell>
        <mxCell id="EufJS-9l2FlXT6CtHByc-61" value="Time" style="ellipse;whiteSpace=wrap;html=1;align=center;" parent="1" vertex="1">
          <mxGeometry x="1150" y="460" width="100" height="40" as="geometry" />
        </mxCell>
        <mxCell id="EufJS-9l2FlXT6CtHByc-63" value="Customer" style="ellipse;whiteSpace=wrap;html=1;align=center;" parent="1" vertex="1">
          <mxGeometry x="1060" y="510" width="100" height="40" as="geometry" />
        </mxCell>
        <mxCell id="EufJS-9l2FlXT6CtHByc-64" value="Date" style="ellipse;whiteSpace=wrap;html=1;align=center;" parent="1" vertex="1">
          <mxGeometry x="1140" y="385" width="100" height="40" as="geometry" />
        </mxCell>
        <mxCell id="EufJS-9l2FlXT6CtHByc-65" value="TotalPrice" style="ellipse;whiteSpace=wrap;html=1;align=center;dashed=1;" parent="1" vertex="1">
          <mxGeometry x="660" y="420" width="100" height="40" as="geometry" />
        </mxCell>
        <mxCell id="EufJS-9l2FlXT6CtHByc-66" value="" style="endArrow=none;html=1;rounded=0;entryX=0;entryY=0.5;entryDx=0;entryDy=0;exitX=1;exitY=0.5;exitDx=0;exitDy=0;" parent="1" source="EufJS-9l2FlXT6CtHByc-65" target="sUHgYp035g94h7qN6RoD-8" edge="1">
          <mxGeometry relative="1" as="geometry">
            <mxPoint x="610" y="580" as="sourcePoint" />
            <mxPoint x="770" y="580" as="targetPoint" />
          </mxGeometry>
        </mxCell>
        <mxCell id="EufJS-9l2FlXT6CtHByc-67" value="" style="endArrow=none;html=1;rounded=0;entryX=0;entryY=0.5;entryDx=0;entryDy=0;exitX=1;exitY=0.5;exitDx=0;exitDy=0;" parent="1" source="EufJS-9l2FlXT6CtHByc-60" target="sUHgYp035g94h7qN6RoD-8" edge="1">
          <mxGeometry relative="1" as="geometry">
            <mxPoint x="670" y="550" as="sourcePoint" />
            <mxPoint x="830" y="550" as="targetPoint" />
          </mxGeometry>
        </mxCell>
        <mxCell id="EufJS-9l2FlXT6CtHByc-68" value="" style="endArrow=none;html=1;rounded=0;entryX=0.75;entryY=1;entryDx=0;entryDy=0;exitX=0.5;exitY=0;exitDx=0;exitDy=0;" parent="1" source="EufJS-9l2FlXT6CtHByc-72" target="sUHgYp035g94h7qN6RoD-8" edge="1">
          <mxGeometry relative="1" as="geometry">
            <mxPoint x="960" y="450" as="sourcePoint" />
            <mxPoint x="830" y="550" as="targetPoint" />
          </mxGeometry>
        </mxCell>
        <mxCell id="EufJS-9l2FlXT6CtHByc-69" value="" style="endArrow=none;html=1;rounded=0;entryX=1;entryY=0.5;entryDx=0;entryDy=0;exitX=0.5;exitY=0;exitDx=0;exitDy=0;" parent="1" source="EufJS-9l2FlXT6CtHByc-63" target="sUHgYp035g94h7qN6RoD-8" edge="1">
          <mxGeometry relative="1" as="geometry">
            <mxPoint x="670" y="550" as="sourcePoint" />
            <mxPoint x="830" y="550" as="targetPoint" />
          </mxGeometry>
        </mxCell>
        <mxCell id="EufJS-9l2FlXT6CtHByc-70" value="" style="endArrow=none;html=1;rounded=0;entryX=0;entryY=0.5;entryDx=0;entryDy=0;exitX=1;exitY=0.5;exitDx=0;exitDy=0;" parent="1" source="sUHgYp035g94h7qN6RoD-8" target="EufJS-9l2FlXT6CtHByc-61" edge="1">
          <mxGeometry relative="1" as="geometry">
            <mxPoint x="670" y="550" as="sourcePoint" />
            <mxPoint x="830" y="550" as="targetPoint" />
          </mxGeometry>
        </mxCell>
        <mxCell id="EufJS-9l2FlXT6CtHByc-71" value="" style="endArrow=none;html=1;rounded=0;entryX=0;entryY=0.5;entryDx=0;entryDy=0;exitX=1;exitY=0.25;exitDx=0;exitDy=0;" parent="1" source="sUHgYp035g94h7qN6RoD-8" target="EufJS-9l2FlXT6CtHByc-64" edge="1">
          <mxGeometry relative="1" as="geometry">
            <mxPoint x="670" y="550" as="sourcePoint" />
            <mxPoint x="830" y="550" as="targetPoint" />
          </mxGeometry>
        </mxCell>
        <mxCell id="EufJS-9l2FlXT6CtHByc-72" value="listOfProducts" style="ellipse;shape=doubleEllipse;margin=3;whiteSpace=wrap;html=1;align=center;" parent="1" vertex="1">
          <mxGeometry x="910" y="440" width="100" height="40" as="geometry" />
        </mxCell>
        <mxCell id="EcahF4Pnq-Xt_xnuyKWQ-3" value="priceDiscount" style="ellipse;whiteSpace=wrap;html=1;align=center;" vertex="1" parent="1">
          <mxGeometry x="143" y="237" width="100" height="40" as="geometry" />
        </mxCell>
        <mxCell id="EcahF4Pnq-Xt_xnuyKWQ-4" value="" style="endArrow=none;html=1;rounded=0;exitX=0.75;exitY=1;exitDx=0;exitDy=0;entryX=0.5;entryY=0;entryDx=0;entryDy=0;" edge="1" parent="1" source="EufJS-9l2FlXT6CtHByc-48" target="EcahF4Pnq-Xt_xnuyKWQ-3">
          <mxGeometry relative="1" as="geometry">
            <mxPoint x="584" y="363" as="sourcePoint" />
            <mxPoint x="744" y="363" as="targetPoint" />
          </mxGeometry>
        </mxCell>
      </root>
    </mxGraphModel>
  </diagram>
</mxfile>
